<svg width="673" height="645" viewBox="0 0 673 645" fill="none" xmlns="http://www.w3.org/2000/svg">
<path d="M563.407 516.368C562.6 583.754 508.14 638.159 440.754 638.924V639H22.7686V638.924C-44.6173 638.159 -99.0844 583.754 -99.8841 516.368C-156.412 516.106 -203 470.215 -203 413.638V231.334C-203 174.909 -156.212 129.142 -99.8841 128.639C-99.0913 61.2461 -44.6173 6.841 22.7686 6.0689V5.99998H440.747V6.0689C508.133 6.8341 562.607 61.2392 563.4 128.639C619.728 129.142 666.516 174.909 666.516 231.334V413.638C666.516 470.222 619.928 516.106 563.4 516.368H563.407ZM562.931 129.025L-99.5394 128.935L-99.3877 515.961L562.931 515.872V129.032V129.025Z" stroke="url(#paint0_linear_485_2)" stroke-width="11.3369" stroke-miterlimit="10"/>
<defs>
<linearGradient id="paint0_linear_485_2" x1="231.758" y1="639" x2="231.758" y2="6" gradientUnits="userSpaceOnUse">
<stop stop-color="#F1CFF2"/>
<stop offset="0.57" stop-color="#F1CFF2" stop-opacity="0"/>
</linearGradient>
</defs>
</svg>
