<svg width="273" height="94" viewBox="0 0 273 94" fill="none" xmlns="http://www.w3.org/2000/svg">
<g clip-path="url(#clip0_251_1121)">
<path d="M131.048 0.805664V21.0422H124.482C123.817 18.857 123.12 16.9358 122.402 15.2784C121.684 13.6211 120.945 12.2382 120.185 11.1192C119.425 10.0002 118.591 9.11351 117.673 8.4379C116.755 7.77285 115.678 7.30837 114.422 7.06558C113.165 6.82278 111.677 6.6961 109.935 6.6961H88.7591V41.8171H103.105C105.069 41.8171 106.61 41.5426 107.729 40.9831C108.848 40.4236 109.777 39.4736 110.505 38.1329C111.244 36.7922 111.951 34.6915 112.616 31.8308H118.919V57.5671H112.616C111.994 54.8858 111.297 52.8696 110.537 51.4972C109.777 50.1355 108.869 49.1643 107.824 48.5837C106.779 48.0031 105.195 47.7075 103.095 47.7075H88.7486V86.3754H109.597C111.782 86.3754 113.567 86.1854 114.928 85.8054C116.29 85.4253 117.462 84.7814 118.444 83.863C119.425 82.9446 120.301 81.7517 121.062 80.2738C121.822 78.7959 122.455 77.2653 122.972 75.6818C123.489 74.0984 124.186 71.7865 125.083 68.7463H131.713L130.436 92.2764H68.3748V88.9934C71.1406 88.2755 72.9985 87.4838 73.938 86.6182C74.8775 85.742 75.4898 84.5069 75.7854 82.9024C76.0704 81.2978 76.2182 78.8382 76.2182 75.534V17.5586C76.2182 14.4761 76.1021 12.2276 75.8804 10.8236C75.6587 9.41964 75.2892 8.32178 74.772 7.54061C74.2547 6.75944 73.5791 6.13662 72.724 5.66158C71.8795 5.1971 70.4227 4.66929 68.3643 4.08869V0.805664H131.027H131.048Z" fill="black"/>
<path d="M184.104 23.8607C184.104 19.5748 184.072 16.5768 183.998 14.8773C183.935 13.1777 183.755 11.742 183.46 10.5492C183.164 9.3563 182.763 8.4379 182.256 7.76229C181.739 7.09724 181.053 6.55887 180.177 6.15773C179.3 5.75659 177.728 5.35545 175.447 4.95431V0.805664H195.621V73.9928C195.621 77.4764 195.684 79.9677 195.821 81.4667C195.958 82.9657 196.243 84.1585 196.697 85.0558C197.141 85.9531 197.848 86.6709 198.809 87.2304C199.769 87.7899 201.458 88.3177 203.865 88.8033V92.2869H184.03L184.832 81.9628L183.829 81.6989C181.011 84.6969 178.572 86.9349 176.492 88.4339C174.413 89.9329 172.207 91.1257 169.852 92.023C167.509 92.9203 164.997 93.3637 162.315 93.3637C154.989 93.3637 149.331 90.5768 145.362 85.0242C141.382 79.461 139.397 71.4276 139.397 60.9346C139.397 53.6085 140.696 47.3908 143.282 42.271C145.868 37.1617 149.373 33.3509 153.775 30.849C158.177 28.3472 163.128 27.091 168.617 27.091C171.563 27.091 174.244 27.3232 176.661 27.7982C179.079 28.2627 181.559 29.0333 184.104 30.1101V23.8713V23.8607ZM184.104 52.5528C184.104 49.0693 183.945 46.2718 183.639 44.1711C183.322 42.0704 182.805 40.3075 182.066 38.8824C181.327 37.4467 180.335 36.2433 179.079 35.2616C177.823 34.2798 176.45 33.562 174.962 33.1186C173.463 32.6753 171.668 32.443 169.567 32.443C163.846 32.443 159.486 34.7337 156.499 39.3152C153.501 43.8966 152.012 50.4733 152.012 59.0556C152.012 67.6379 153.237 74.1617 155.696 78.627C158.156 83.0923 161.882 85.3303 166.886 85.3303C168.85 85.3303 170.486 85.1614 171.774 84.8236C173.072 84.4858 174.339 83.9474 175.595 83.219C176.841 82.4801 178.118 81.4667 179.417 80.1682C180.715 78.8698 181.665 77.6875 182.267 76.6107C182.868 75.534 183.333 74.3095 183.639 72.9266C183.956 71.5437 184.104 69.7597 184.104 67.564V52.5528Z" fill="black"/>
<path d="M205.428 28.2212H224.524V62.3393C224.524 67.5647 224.725 71.5444 225.126 74.268C225.527 76.9915 226.129 79.05 226.931 80.4329C227.733 81.8157 228.873 82.9769 230.351 83.9165C231.829 84.856 233.856 85.3204 236.453 85.3204C238.152 85.3204 239.778 84.9826 241.34 84.3176C242.903 83.6525 244.644 82.4702 246.566 80.8023C248.487 79.1239 249.859 77.4665 250.683 75.8092C251.506 74.1518 251.918 72.2306 251.918 70.0454V44.9108C251.918 42.3667 251.854 40.4454 251.717 39.147C251.58 37.8486 251.358 36.8141 251.052 36.0329C250.735 35.2517 250.366 34.6183 249.944 34.1222C249.521 33.626 248.92 33.1827 248.139 32.7815C247.357 32.3804 246.091 31.9581 244.349 31.5042V28.2212H263.445V73.9935C263.445 77.4349 263.509 79.9156 263.646 81.4357C263.783 82.9558 264.068 84.1592 264.522 85.0565C264.965 85.9538 265.662 86.6717 266.602 87.2311C267.541 87.7906 269.22 88.3185 271.626 88.804V92.2876H252.192L252.593 81.9635L251.59 81.6996C247.885 85.7216 244.338 88.6668 240.971 90.5458C237.593 92.4249 234.215 93.3644 230.816 93.3644C226.751 93.3644 223.394 92.5621 220.766 90.947C218.127 89.3424 216.163 86.9356 214.865 83.737C213.566 80.549 212.923 76.0414 212.923 70.2354V44.9002C212.923 41.1422 212.775 38.5664 212.49 37.1624C212.194 35.7584 211.645 34.6394 210.811 33.8161C209.988 32.9927 208.183 32.222 205.417 31.5042V28.2212H205.428Z" fill="black"/>
<path d="M13.1473 44.4938V32.766H48.5579V0.635742H60.2913V91.7312H13.1473V79.8982H1.30859V44.5043H13.1473V44.4938ZM48.5579 79.8982V44.5043H13.1473V79.8982H48.5579Z" fill="#A62DE7"/>
</g>
<defs>
<clipPath id="clip0_251_1121">
<rect width="272.281" height="93.5967" fill="white"/>
</clipPath>
</defs>
</svg>
