<svg width="108" height="80" viewBox="0 0 108 80" fill="none" xmlns="http://www.w3.org/2000/svg">
<path d="M93.3269 16.6131C93.2308 8.58326 86.7412 2.10022 78.7113 2.00904V2H28.9031V2.00904C20.8733 2.10022 14.3828 8.58326 14.2875 16.6131C7.55149 16.6443 2 22.1129 2 28.8547V50.5784C2 57.3022 7.57532 62.7559 14.2875 62.8159C14.382 70.8466 20.8733 77.3296 28.9031 77.4216V77.4298H78.7105V77.4216C86.7404 77.3304 93.2316 70.8474 93.3261 62.8159C100.038 62.7559 105.614 57.3022 105.614 50.5784V28.8547C105.614 22.112 100.062 16.6443 93.3261 16.6131H93.3269ZM93.2702 62.7699L14.3286 62.7806L14.3467 16.6616L93.2702 16.6723V62.7691V62.7699Z" stroke="#A62DE7" stroke-width="4" stroke-miterlimit="10"/>
</svg>
