<svg width="777" height="569" viewBox="0 0 777 569" fill="none" xmlns="http://www.w3.org/2000/svg">
<path d="M681.026 113.17C680.314 53.731 632.277 5.74185 572.837 5.06689V5H204.144V5.06689C144.705 5.74185 96.661 53.731 95.9557 113.17C46.0936 113.401 5 153.881 5 203.785V364.59C5 414.361 46.27 454.731 95.9557 455.175C96.6549 514.621 144.705 562.61 204.144 563.291V563.352H572.831V563.291C632.271 562.616 680.321 514.627 681.02 455.175C730.706 454.731 771.976 414.361 771.976 364.59V203.785C771.976 153.875 730.882 113.401 681.02 113.17H681.026ZM680.606 454.835L96.2597 454.914L96.3935 113.529L680.606 113.608V454.829V454.835Z" stroke="url(#paint0_linear_439_24)" stroke-width="10" stroke-miterlimit="10"/>
<defs>
<linearGradient id="paint0_linear_439_24" x1="388.488" y1="5" x2="388.488" y2="563.352" gradientUnits="userSpaceOnUse">
<stop stop-color="#F1CFF2"/>
<stop offset="0.57" stop-color="#F1CFF2" stop-opacity="0"/>
</linearGradient>
</defs>
</svg>
